<svg xmlns="http://www.w3.org/2000/svg" width="69.117" height="51.069" viewBox="0 0 69.117 51.069">
  <g id="noun-no-ads-4084355" transform="translate(0.5 0.508)">
    <path id="Path_707" data-name="Path 707" d="M562.2,290.578l1.319-2.778,4.379,2.074-1.319,2.778Z" transform="translate(-500.971 -261.794)" fill="#fff" stroke="#585936" stroke-width="1"/>
    <path id="Path_708" data-name="Path 708" d="M577.5,245.273l.077-3.073,4.84.115-.077,3.073Z" transform="translate(-514.312 -222.033)" fill="#fff" stroke="#585936" stroke-width="1"/>
    <path id="Path_709" data-name="Path 709" d="M564.8,185.369l4.469-1.869,1.191,2.842-4.481,1.857Z" transform="translate(-503.239 -170.849)" fill="#fff" stroke="#585936" stroke-width="1"/>
    <path id="Path_710" data-name="Path 710" d="M135.3,97.229V86.563a1.913,1.913,0,0,0-.909-1.549,2.133,2.133,0,0,0-1.652-.256l-24.724,9.833H95.931a6.99,6.99,0,0,0-5.9,3.483l-.884.346A7.659,7.659,0,0,0,84,105.654a7.471,7.471,0,0,0,3.227,6.236,15.771,15.771,0,1,0,29.795,8.745l15.621,6.325.5.141h.166a2.165,2.165,0,0,0,1.063-.2,1.836,1.836,0,0,0,.947-1.536V114.092a8.452,8.452,0,0,0-.013-16.863ZM95.956,98.3h10.755v5.736A15.815,15.815,0,0,0,92.96,105.59v-4.059a3.12,3.12,0,0,1,.832-2.228,3.023,3.023,0,0,1,2.164-1Zm-8.118,7.324a3.588,3.588,0,0,1,1.434-3.035v6.146a3.524,3.524,0,0,1-1.434-3.035Zm2.049,13.3a11.463,11.463,0,0,1,17.977-9.436L91.923,125.436a11.4,11.4,0,0,1-2.036-6.5ZM101.359,130.4a11.466,11.466,0,0,1-6.5-2.061l15.954-15.928a11.477,11.477,0,0,1-9.449,17.99Zm30.23-7.8-14.609-5.877a15.767,15.767,0,0,0-6.594-10.755V97.856l21.2-8.489Zm3.713-12.189v-9.462a4.694,4.694,0,0,1,2.151.845,3.758,3.758,0,0,1,.589.512,4.752,4.752,0,0,1-2.753,8.066Z" transform="translate(-83.997 -84.693)" fill="#fff" stroke="#585936" stroke-width="1"/>
  </g>
</svg>
