<svg id="noun-movies-4608881" xmlns="http://www.w3.org/2000/svg" width="47.973" height="50" viewBox="0 0 47.973 50">
  <path id="Path_713" data-name="Path 713" d="M164.645,77.077H131.609l34.149-8.285a2.6,2.6,0,0,0,1.915-3.145l-1.056-4.363a2.612,2.612,0,0,0-2.53-1.984,2.776,2.776,0,0,0-.615.07L122.558,69.3a2.6,2.6,0,0,0-1.915,3.145L121.7,76.81a2.571,2.571,0,0,0,.789,1.311,3.889,3.889,0,0,0-1.253,2.854V105.4a3.892,3.892,0,0,0,3.9,3.9h39.51a3.892,3.892,0,0,0,3.9-3.9V80.976a3.9,3.9,0,0,0-3.9-3.9Zm1.949,3.9v4.351h-.58l-6.289-6.3h4.92a1.954,1.954,0,0,1,1.949,1.949Zm-43.409,0a1.989,1.989,0,0,1,.441-1.23l5.57,5.57h-6.022Zm8.772,4.351-6.3-6.3h4.05l6.3,6.3Zm6.811,0-6.3-6.3h4.05l6.3,6.3Zm6.811,0-6.3-6.3h4.05l6.3,6.3Zm6.811,0-6.3-6.3h4.05l6.3,6.3Zm6.811,0-6.3-6.3h4.514l-.232.232,6.069,6.069Zm-8.6-14.864-3.841.928,4.108-6.916-.035-.023,3.818-.928Zm6.672-7.577,4.316-1.044L157.4,68.815l-4.177,1.009Zm-13.17,9.155L140.138,73l4.061-6.939,4.038-.975Zm-6.6,1.6-3.98.963,4.085-6.939h0l3.98-.963Zm-6.626,1.6-4.061.986,3.887-6.893,4.259-1.033Zm33.836-13.495,1.056,4.363a.59.59,0,0,1-.081.487.614.614,0,0,1-.406.29l-5.233,1.265,4.143-6.893a.642.642,0,0,1,.522.487Zm-42.1,9.747a.613.613,0,0,1,.406-.29l5.106-1.242-3.876,6.881h-.023a.639.639,0,0,1-.627-.5l-1.056-4.363a.564.564,0,0,1,.07-.487Zm42.028,35.855h-39.51a1.946,1.946,0,0,1-1.949-1.949V87.265h43.409V105.4a1.954,1.954,0,0,1-1.949,1.949Z" transform="translate(-120.571 -59.3)" fill="#fff"/>
  <path id="Path_714" data-name="Path 714" d="M262.2,343h15.27v1.949H262.2Z" transform="translate(-245.766 -310.081)" fill="#fff"/>
  <path id="Path_715" data-name="Path 715" d="M262.2,393.9h15.27v1.949H262.2Z" transform="translate(-245.766 -355.074)" fill="#fff"/>
</svg>
