<svg xmlns="http://www.w3.org/2000/svg" width="69" height="46.023" viewBox="0 0 69 46.023">
  <path id="noun-movies-4064699" d="M106,113.148a8.008,8.008,0,0,0-8.008,8.008v29.005A8.009,8.009,0,0,0,106,158.17h39.7a8.009,8.009,0,0,0,8.008-8.009v-6.773l8.455,9.54a2.192,2.192,0,0,0,3.832-1.451V119.84a2.194,2.194,0,0,0-3.832-1.455l-8.455,9.538v-6.767a8.008,8.008,0,0,0-8.008-8.008Zm0,1.511h39.7a6.466,6.466,0,0,1,6.5,6.5v8.694a.738.738,0,0,0,0,.152v11.36q0,.032,0,.065v8.734a6.466,6.466,0,0,1-6.5,6.5H106a6.466,6.466,0,0,1-6.5-6.5V121.156a6.466,6.466,0,0,1,6.5-6.5Zm57.847,4.5a.826.826,0,0,1,.192.048.63.63,0,0,1,.439.636v31.637a.68.68,0,0,1-1.188.452L153.7,141.11v-10.9l9.586-10.819a.616.616,0,0,1,.557-.233Z" transform="translate(-97.491 -112.648)" fill="#fff" stroke="#fff" stroke-width="1"/>
</svg>
