<svg xmlns="http://www.w3.org/2000/svg" width="51.685" height="50" viewBox="0 0 51.685 50">
  <g id="noun-customer-support-7336531" transform="translate(-9.996 -11.296)">
    <path id="Path_2779" data-name="Path 2779" d="M57.472,31.089a21.65,21.65,0,0,0-43.14,0h-.066A4.264,4.264,0,0,0,10,35.359v4.528a4.264,4.264,0,0,0,4.27,4.27h1.94a1.435,1.435,0,0,0,1.422-1.422l0-10.22a1.435,1.435,0,0,0-1.422-1.422H16.08A19.91,19.91,0,0,1,49.971,18.866a19.634,19.634,0,0,1,5.692,12.223h-.129a1.435,1.435,0,0,0-1.422,1.422v10.22a1.435,1.435,0,0,0,1.422,1.422h.195v5.369a8.06,8.06,0,0,1-8.019,8.019l-7.246,0h-.129a2.994,2.994,0,0,0-2.782-2.069H34.125a2.911,2.911,0,1,0,0,5.821h3.429a2.994,2.994,0,0,0,2.782-2.069h7.372a9.73,9.73,0,0,0,9.7-9.7V44.156a4.264,4.264,0,0,0,4.27-4.27V35.359a4.172,4.172,0,0,0-4.207-4.27Z" transform="translate(0)" fill="#fff"/>
    <path id="Path_2780" data-name="Path 2780" d="M39.072,58.437H52.2a4.471,4.471,0,0,0,4.462-4.462V41.363A4.471,4.471,0,0,0,52.2,36.9l-20.44,0A4.471,4.471,0,0,0,27.3,41.36V53.907a4.471,4.471,0,0,0,4.462,4.462h.258l-1.228,7.438Zm9.7-12.484A1.746,1.746,0,1,1,47.028,47.7,1.738,1.738,0,0,1,48.774,45.953Zm-6.791,0A1.746,1.746,0,1,1,40.237,47.7,1.827,1.827,0,0,1,41.982,45.953Zm-6.725,0A1.746,1.746,0,1,1,33.511,47.7,1.738,1.738,0,0,1,35.257,45.953Z" transform="translate(-6.112 -9.043)" fill="#fff"/>
  </g>
</svg>
