<svg xmlns="http://www.w3.org/2000/svg" width="51.088" height="50" viewBox="0 0 51.088 50">
  <g id="noun-favorites-28146" transform="translate(-115.6 -53)">
    <path id="Path_711" data-name="Path 711" d="M115.6,65.6h27.5l1.937-3.514H115.6Zm0-12.6v3.514h33.08V53Zm0,21.681h22.48l1.937-3.514H115.6Zm0,5.58v3.514h9.523l-3.294-3.514Z" transform="translate(0)" fill="#fff"/>
    <path id="Path_712" data-name="Path 712" d="M272.549,193.294l-13.186-2.535L252.875,179l-6.488,11.759L233.2,193.294l9.183,9.8-1.667,13.326,12.158-5.7,12.158,5.7L263.366,203.1Zm-19.665,12.547-7.6,3.564,1.038-8.325-5.74-6.129,8.245-1.587,4.053-7.347,4.053,7.347,8.245,1.587-5.74,6.129,1.038,8.325Z" transform="translate(-105.861 -113.423)" fill="#fff"/>
  </g>
</svg>
