<svg id="noun-hd-2397522" xmlns="http://www.w3.org/2000/svg" width="62.072" height="50" viewBox="0 0 62.072 50">
  <path id="Path_716" data-name="Path 716" d="M144.549,58.8H85.636A1.626,1.626,0,0,0,84,60.436V98.145a1.626,1.626,0,0,0,1.636,1.636h26.838v5.564h-7.2a.874.874,0,0,0-.853.853v1.747a.874.874,0,0,0,.853.853h19.509a.874.874,0,0,0,.853-.853V106.2a.874.874,0,0,0-.853-.853h-7.2V99.782h26.838a1.626,1.626,0,0,0,1.636-1.636V60.436a1.453,1.453,0,0,0-1.508-1.636ZM87.384,96.456V62.242h55.36V96.456Z" transform="translate(-84 -58.8)" fill="#fff"/>
  <path id="Path_717" data-name="Path 717" d="M364.655,180.995h4.056a8.165,8.165,0,0,0,8.112-8.966,8.329,8.329,0,0,0-8.44-7.329h-3.729a.653.653,0,0,0-.655.655V180.4a.652.652,0,0,0,.655.6ZM368,168.616h.725a4.185,4.185,0,1,1,0,8.369H368Z" transform="translate(-331.27 -152.321)" fill="#fff"/>
  <path id="Path_718" data-name="Path 718" d="M233.655,180.465h2.689a.653.653,0,0,0,.655-.655v-5.564h4.056v5.564a.653.653,0,0,0,.655.655H244.4a.653.653,0,0,0,.655-.655V164.755a.653.653,0,0,0-.655-.655h-2.688a.653.653,0,0,0-.655.655v5.564H237v-5.564a.653.653,0,0,0-.655-.655h-2.689a.653.653,0,0,0-.655.655V179.81A.7.7,0,0,0,233.655,180.465Z" transform="translate(-215.583 -151.791)" fill="#fff"/>
</svg>
